<svg xmlns="http://www.w3.org/2000/svg" xmlns:xlink="http://www.w3.org/1999/xlink" width="40" zoomAndPan="magnify" viewBox="0 0 30 30.000001" height="40" preserveAspectRatio="xMidYMid meet" version="1.0"><defs><clipPath id="1d9656ee0f"><path d="M 2.804688 5.566406 L 17 5.566406 L 17 23.710938 L 2.804688 23.710938 Z M 2.804688 5.566406 " clip-rule="nonzero"/></clipPath><clipPath id="1769dcae2e"><path d="M 13 11 L 22 11 L 22 23.710938 L 13 23.710938 Z M 13 11 " clip-rule="nonzero"/></clipPath><clipPath id="1ad1407eba"><path d="M 24 12 L 27.480469 12 L 27.480469 23 L 24 23 Z M 24 12 " clip-rule="nonzero"/></clipPath></defs><g clip-path="url(#1d9656ee0f)"><path fill="#0f4880" d="M 6.933594 6.621094 L 6.933594 9.785156 L 4.183594 9.785156 Z M 6.917969 5.558594 C 6.792969 5.558594 6.675781 5.613281 6.59375 5.707031 L 2.921875 9.929688 C 2.851562 10.015625 2.816406 10.121094 2.816406 10.214844 L 2.816406 23.257812 C 2.820312 23.488281 3.011719 23.679688 3.246094 23.679688 L 15.804688 23.691406 C 16.039062 23.691406 16.230469 23.496094 16.230469 23.265625 L 16.230469 21.945312 C 15.988281 21.820312 15.707031 21.699219 15.375 21.582031 L 15.375 22.835938 L 3.671875 22.824219 L 3.671875 10.640625 L 7.363281 10.640625 C 7.59375 10.640625 7.789062 10.445312 7.789062 10.214844 L 7.789062 6.417969 L 15.375 6.417969 L 15.378906 13.148438 C 15.707031 13.03125 15.988281 12.910156 16.230469 12.789062 L 16.230469 5.984375 C 16.230469 5.753906 16.039062 5.558594 15.808594 5.558594 C 15.808594 5.558594 15.808594 5.558594 15.804688 5.558594 Z M 6.917969 5.558594 " fill-opacity="1" fill-rule="evenodd"/></g><g clip-path="url(#1769dcae2e)"><path fill="#0f4880" d="M 19.722656 11.089844 C 18.550781 11.089844 18.90625 13.078125 14.945312 14.191406 C 13.851562 14.5 13.296875 14.730469 13.296875 15.871094 L 13.296875 18.914062 C 13.296875 20.054688 13.851562 20.285156 14.945312 20.59375 C 18.90625 21.707031 18.550781 23.691406 19.722656 23.691406 L 20.234375 23.691406 C 20.769531 23.691406 21.203125 23.257812 21.203125 22.71875 L 21.203125 12.0625 C 21.203125 11.527344 20.769531 11.089844 20.234375 11.089844 Z M 19.722656 11.089844 " fill-opacity="1" fill-rule="nonzero"/></g><g clip-path="url(#1ad1407eba)"><path fill="#0f4880" d="M 25.328125 12.25 C 24.710938 12.28125 24.378906 12.988281 24.753906 13.480469 C 25.488281 14.484375 25.933594 15.902344 25.933594 17.390625 C 25.933594 18.882812 25.488281 20.300781 24.753906 21.304688 C 24.5 21.648438 24.574219 22.128906 24.914062 22.378906 C 25.257812 22.628906 25.738281 22.558594 25.992188 22.214844 C 26.953125 20.898438 27.464844 19.179688 27.464844 17.390625 C 27.464844 15.605469 26.953125 13.886719 25.992188 12.570312 C 25.835938 12.355469 25.589844 12.238281 25.328125 12.25 Z M 25.328125 12.25 " fill-opacity="1" fill-rule="nonzero"/></g><path fill="#0f4880" d="M 23.238281 14.199219 C 22.65625 14.207031 22.292969 14.835938 22.578125 15.34375 C 23.261719 16.605469 23.261719 18.179688 22.578125 19.441406 C 22.367188 19.816406 22.5 20.292969 22.878906 20.5 C 23.257812 20.707031 23.730469 20.558594 23.925781 20.171875 C 24.863281 18.445312 24.863281 16.335938 23.925781 14.609375 C 23.792969 14.355469 23.527344 14.195312 23.238281 14.199219 Z M 23.238281 14.199219 " fill-opacity="1" fill-rule="nonzero"/><path fill="#0f4880" d="M 6.066406 12.839844 L 11.519531 12.839844 C 11.777344 12.839844 11.980469 13.046875 11.980469 13.300781 C 11.980469 13.550781 11.777344 13.757812 11.519531 13.757812 L 6.066406 13.757812 C 5.8125 13.757812 5.609375 13.550781 5.609375 13.300781 C 5.609375 13.046875 5.8125 12.839844 6.066406 12.839844 Z M 6.066406 12.839844 " fill-opacity="1" fill-rule="evenodd"/><path fill="#0f4880" d="M 6.066406 15.148438 L 11.519531 15.148438 C 11.777344 15.148438 11.980469 15.355469 11.980469 15.609375 C 11.980469 15.863281 11.777344 16.066406 11.519531 16.066406 L 6.066406 16.066406 C 5.8125 16.066406 5.609375 15.863281 5.609375 15.609375 C 5.609375 15.355469 5.8125 15.148438 6.066406 15.148438 Z M 6.066406 15.148438 " fill-opacity="1" fill-rule="evenodd"/><path fill="#0f4880" d="M 6.066406 17.460938 L 11.519531 17.460938 C 11.777344 17.460938 11.980469 17.664062 11.980469 17.917969 C 11.980469 18.171875 11.777344 18.378906 11.519531 18.378906 L 6.066406 18.378906 C 5.8125 18.378906 5.609375 18.171875 5.609375 17.917969 C 5.609375 17.664062 5.8125 17.460938 6.066406 17.460938 Z M 6.066406 17.460938 " fill-opacity="1" fill-rule="evenodd"/><path fill="#0f4880" d="M 6.066406 19.769531 L 8.808594 19.769531 C 9.066406 19.769531 9.269531 19.972656 9.269531 20.226562 C 9.269531 20.480469 9.066406 20.6875 8.808594 20.6875 L 6.066406 20.6875 C 5.8125 20.6875 5.609375 20.480469 5.609375 20.226562 C 5.609375 19.972656 5.8125 19.769531 6.066406 19.769531 Z M 6.066406 19.769531 " fill-opacity="1" fill-rule="evenodd"/></svg>