<?xml version="1.0" encoding="UTF-8"?>
<svg id="Layer_1" data-name="Layer 1" xmlns="http://www.w3.org/2000/svg" viewBox="0 0 115 96">
  <defs>
    <style>
      .cls-1 {
        stroke: #031c43;
        stroke-width: 1.5px;
      }

      .cls-1, .cls-2 {
        fill: #031c43;
      }

      .cls-3 {
        fill: #fcfcfc;
      }

      .cls-3, .cls-4, .cls-2 {
        stroke-width: 0px;
      }

      .cls-4 {
        fill: #f5f5f5;
      }
    </style>
  </defs>
  <g id="Adda">
    <g id="Head">
      <g id="Ears">
        <path id="Vector" class="cls-2" d="m100.33,30.04c-.41-.06-.82-.1-1.23-.12,4.66,10.76,4.99,22.91.9,33.91.41-.05.81-.11,1.22-.19,3.95-.77,7.51-2.91,10.03-6.06,2.52-3.15,3.85-7.08,3.74-11.12-.11-4.03-1.64-7.89-4.33-10.9s-6.35-4.96-10.34-5.52Z"/>
        <path id="Vector_2" data-name="Vector 2" class="cls-2" d="m15.89,29.92c-.41.03-.82.06-1.23.12-3.99.55-7.65,2.51-10.34,5.52C1.65,38.56.11,42.43,0,46.46c-.11,4.03,1.22,7.97,3.74,11.12,2.52,3.15,6.07,5.29,10.03,6.06.4.08.81.14,1.22.19-4.08-10.99-3.76-23.15.9-33.91Z"/>
      </g>
      <path id="Head_2" data-name="Head 2" class="cls-1" d="m77.85,87.73c9.91-5.09,17.56-13.71,21.45-24.17,1.85-4.98,2.8-10.26,2.8-15.57l-24.25,39.74Zm0,0c-9.91,5.09-21.37,6.28-32.11,3.34-10.74-2.94-20-9.81-25.94-19.25-5.94-9.44-8.15-20.76-6.17-31.74,1.97-10.98,7.98-20.82,16.84-27.59,8.86-6.77,19.92-9.97,31.02-8.98,11.1.99,21.42,6.11,28.94,14.34,7.52,8.23,11.69,18.98,11.69,30.14l-24.25,39.74Zm23.17-57.98h0c-4.52-10.81-12.89-19.56-23.49-24.53C66.94.24,54.87-.61,43.68,2.82c-11.19,3.43-20.71,10.91-26.7,20.98-5.99,10.07-8.04,22.01-5.73,33.5,2.31,11.49,8.79,21.72,18.21,28.68,9.41,6.97,21.07,10.19,32.72,9.03,11.65-1.16,22.45-6.62,30.3-15.31,7.86-8.69,12.21-19.99,12.2-31.71h0c0-6.26-1.25-12.46-3.66-18.24Z"/>
      <circle class="cls-3" cx="57.53" cy="48.1" r="44.1"/>
      <path id="Vector_3" data-name="Vector 3" class="cls-2" d="m81.26,36.11h-47.51c-2.51,0-4.91,1.14-6.68,3.17-1.77,2.03-2.77,4.78-2.77,7.65s1,5.62,2.77,7.65c1.77,2.03,4.18,3.17,6.68,3.17h47.51c2.51,0,4.91-1.14,6.68-3.17,1.77-2.03,2.77-4.78,2.77-7.65s-1-5.62-2.77-7.65c-1.77-2.03-4.18-3.17-6.68-3.17Z"/>
      <g id="Face">
        <path id="Vector_4" data-name="Vector 4" class="cls-4" d="m30.68,48.13c-.64,1.99,1.2,3.65,3.3,3.65h9.8c2.1,0,3.94-1.66,3.3-3.65-.38-1.17-.99-2.26-1.8-3.17s-1.8-1.65-2.9-2.15c-1.1-.5-2.29-.76-3.5-.76s-2.4.26-3.5.76c-1.1.5-2.09,1.23-2.9,2.15-.81.92-1.42,2-1.8,3.17Z"/>
        <path id="Vector_5" data-name="Vector 5" class="cls-4" d="m67.81,48.23c-.57,1.97,1.31,3.52,3.36,3.46l9.96-.26c2.05-.05,3.84-1.69,3.17-3.63-.39-1.14-1.03-2.18-1.86-3.06-.83-.88-1.85-1.57-2.98-2.04s-2.34-.69-3.56-.66c-1.22.03-2.42.32-3.52.84-1.1.52-2.08,1.27-2.86,2.19-.79.92-1.36,1.99-1.7,3.15Z"/>
        <path id="Vector_6" data-name="Vector 6" class="cls-2" d="m39.3,70.37c-1.35-1.9.48-3.99,2.81-3.99h30.99c2.25,0,4.07,1.96,2.84,3.85-.86,1.32-2.14,2.55-3.8,3.63-3.2,2.07-7.59,3.42-12.38,3.82-8.58.54-17.08-2.53-20.46-7.31Z"/>
      </g>
    </g>
  </g>
</svg>