<svg width="559" height="403" viewBox="0 0 559 403" fill="none" xmlns="http://www.w3.org/2000/svg">
<g clip-path="url(#clip0_201_21924)">
<path d="M83.2229 285.675C82.7651 284.983 82.1609 284.399 81.4528 283.965C80.7448 283.531 79.9501 283.258 79.1248 283.164C78.2996 283.07 77.4637 283.158 76.6762 283.422C75.8886 283.686 75.1686 284.119 74.5667 284.691L56.625 275.44L57.7403 285.861L74.6071 293.048C75.6357 293.995 76.9762 294.531 78.3744 294.556C79.7726 294.581 81.1315 294.093 82.1935 293.184C83.2555 292.276 83.9469 291.009 84.1366 289.625C84.3263 288.241 84.0012 286.836 83.2229 285.675Z" fill="#A0616A"/>
<path d="M67.278 289.87C66.9534 290.019 66.601 290.097 66.2439 290.101C65.8867 290.105 65.5328 290.034 65.205 289.892L48.163 282.507C42.3359 279.983 37.625 275.431 34.9066 269.697L25.9472 250.805C25.286 249.957 24.7987 248.986 24.5133 247.95C24.2278 246.913 24.1497 245.83 24.2835 244.763C24.4172 243.696 24.7602 242.666 25.2929 241.731C25.8255 240.797 26.5373 239.977 27.3876 239.317C28.2378 238.658 29.2099 238.172 30.2482 237.888C31.2864 237.604 32.3705 237.528 33.4385 237.663C34.5065 237.798 35.5373 238.141 36.4721 238.675C37.4069 239.208 38.2274 239.92 38.8865 240.77L54.6349 269.957L69.1766 280.93C69.5928 281.246 69.902 281.681 70.0623 282.178C70.2226 282.675 70.2264 283.209 70.073 283.708L68.6458 288.313C68.4925 288.807 68.1921 289.242 67.7848 289.561C67.6287 289.684 67.4586 289.787 67.278 289.87Z" fill="#333333"/>
<path d="M25.5528 228.588C33.2171 228.588 39.4302 222.382 39.4302 214.726C39.4302 207.07 33.2171 200.864 25.5528 200.864C17.8886 200.864 11.6755 207.07 11.6755 214.726C11.6755 222.382 17.8886 228.588 25.5528 228.588Z" fill="#A0616A"/>
<path d="M31.1741 396.575L38.1006 396.574L41.3963 369.885L31.1724 369.885L31.1741 396.575Z" fill="#A0616A"/>
<path d="M51.46 402.999L29.6896 403L29.6892 394.598L43.0483 394.597C45.2791 394.597 47.4186 395.482 48.9961 397.058C50.5736 398.634 51.4599 400.771 51.46 402.999Z" fill="#2F2E41"/>
<path d="M8.57347 396.575L15.5 396.574L18.7957 369.885L8.57178 369.885L8.57347 396.575Z" fill="#A0616A"/>
<path d="M28.8596 402.999L7.08924 403L7.08885 394.598L20.4479 394.597C22.6788 394.597 24.8182 395.482 26.3957 397.058C27.9732 398.634 28.8595 400.771 28.8596 402.999Z" fill="#2F2E41"/>
<path d="M6.1546 388.935C5.91592 388.663 5.73825 388.343 5.6335 387.997C5.52874 387.65 5.49932 387.285 5.54721 386.927L17.675 296.066L47.8064 301.178L51.0221 299.25L42.7065 385.46C42.6374 386.042 42.3694 386.582 41.9477 386.989C41.5261 387.397 40.9767 387.647 40.3921 387.697L31.2685 388.456C30.9057 388.487 30.5407 388.439 30.1981 388.316C29.8555 388.193 29.5433 387.998 29.2826 387.744C29.0219 387.491 28.8188 387.184 28.687 386.845C28.5553 386.506 28.4979 386.143 28.5188 385.78L30.881 344.724C30.8851 344.654 30.8633 344.585 30.8196 344.531C30.7759 344.476 30.7135 344.44 30.6444 344.428C30.5754 344.417 30.5046 344.432 30.4458 344.47C30.387 344.508 30.3444 344.566 30.3262 344.633L18.6399 387.923C18.4938 388.462 18.1743 388.938 17.7307 389.278C17.2871 389.617 16.744 389.801 16.1851 389.802H8.0676C7.70529 389.802 7.34717 389.725 7.01723 389.575C6.6873 389.426 6.39318 389.208 6.1546 388.935Z" fill="#2F2E41"/>
<path d="M27.0217 302.426C26.6759 302.113 26.2313 301.931 25.7652 301.912C25.299 301.892 24.8408 302.037 24.4701 302.32L18.446 307C18.1181 307.256 17.7326 307.427 17.3231 307.499C16.9136 307.571 16.4927 307.541 16.0974 307.412C15.702 307.284 15.3443 307.06 15.0556 306.761C14.7669 306.463 14.556 306.098 14.4415 305.698C11.4866 295.361 4.79198 269.341 6.44122 251.027C7.37606 240.646 16.3499 232.756 26.4455 233.418C33.3475 233.878 37.8882 237.855 39.9414 245.239C44.9828 263.369 50.5232 296.625 51.5826 303.108C51.6662 303.611 51.5957 304.127 51.3802 304.589C51.1648 305.052 50.8146 305.438 50.3754 305.698C47.5252 307.407 44.2686 308.323 40.9443 308.349C36.9219 308.349 32.0988 306.95 27.0217 302.426Z" fill="#333333"/>
<path d="M29.2947 308.875C29.3622 308.048 29.2473 307.217 28.9582 306.439C28.6691 305.661 28.2127 304.956 27.6213 304.373C27.0299 303.791 26.3178 303.345 25.5352 303.067C24.7525 302.789 23.9184 302.686 23.0916 302.764L14.6888 284.425L9.12817 293.313L17.9601 309.366C18.1849 310.744 18.9081 311.993 19.9929 312.875C21.0776 313.756 22.4484 314.21 23.8455 314.149C25.2427 314.089 26.5691 313.519 27.5734 312.547C28.5777 311.575 29.1902 310.268 29.2947 308.875Z" fill="#A0616A"/>
<path d="M14.1569 302.347C13.8096 302.264 13.4836 302.108 13.2002 301.891C12.9168 301.674 12.6824 301.4 12.5121 301.086L3.66443 284.77C0.638662 279.191 -0.255714 272.705 1.14767 266.517L5.76861 246.13C5.7728 245.054 5.98908 243.991 6.40507 242.999C6.82107 242.007 7.42864 241.107 8.19303 240.351C8.95743 239.594 9.86366 238.995 10.8599 238.588C11.8562 238.181 12.923 237.974 13.9993 237.98C15.0756 237.985 16.1403 238.202 17.1325 238.618C18.1248 239.035 19.0251 239.643 19.7821 240.407C20.539 241.171 21.1378 242.077 21.544 243.073C21.9503 244.069 22.1562 245.134 22.1499 246.209L16.5102 278.884L21.1736 296.483C21.3062 296.988 21.2804 297.521 21.0997 298.011C20.9189 298.5 20.592 298.923 20.1631 299.221L16.195 301.965C15.7693 302.259 15.264 302.416 14.7464 302.416C14.5479 302.416 14.35 302.393 14.1569 302.347Z" fill="#333333"/>
<path opacity="0.2" d="M21.0241 259.989L15.939 281.437L23.2841 299.498L18.199 282.001L21.0241 259.989Z" fill="#333333"/>
<path d="M17.6338 226.125C16.3994 226.148 15.1727 225.926 14.0245 225.473C13.5194 225.278 12.9949 225.118 12.4907 224.924C8.03743 223.205 5.10389 218.468 4.99883 213.7C4.89377 208.932 7.36549 204.305 11.0358 201.255C14.7061 198.205 19.4601 196.639 24.2204 196.277C29.348 195.887 35.1219 197.186 37.9871 201.452C38.7498 202.587 39.2832 203.965 38.8313 205.336C38.6959 205.75 38.4541 206.121 38.1302 206.412C36.8506 207.549 35.5749 206.694 34.2705 206.618C32.4776 206.514 30.8672 207.964 30.2884 209.662C29.7096 211.361 29.9644 213.23 30.4317 214.963C30.7878 216.005 31.0122 217.087 31.0999 218.185C31.1376 218.736 31.0339 219.287 30.7987 219.786C30.5636 220.285 30.2046 220.716 29.756 221.038C28.6356 221.715 27.1643 221.323 26.0432 220.648C24.9222 219.972 23.9536 219.033 22.7427 218.536C21.5318 218.039 19.905 218.15 19.2002 219.252C18.9762 219.653 18.8246 220.09 18.7523 220.543C18.1204 223.419 18.2657 223.25 17.6338 226.125Z" fill="#2F2E41"/>
<path d="M428.404 130.084H85.4407C84.1343 130.085 82.8818 130.604 81.9581 131.527C81.0343 132.449 80.5148 133.7 80.5137 135.005V367.156C80.5148 368.461 81.0343 369.712 81.9581 370.635C82.8818 371.558 84.1343 372.076 85.4407 372.078H428.404C429.116 372.078 429.82 371.923 430.467 371.625C431.113 371.327 431.688 370.892 432.15 370.35C432.189 370.308 432.225 370.263 432.257 370.215C432.551 369.856 432.789 369.454 432.963 369.024C433.211 368.433 433.338 367.797 433.336 367.156V222.64H431.929V367.156C431.93 367.843 431.728 368.514 431.348 369.086C431.01 369.59 430.551 370.001 430.014 370.283C429.516 370.54 428.964 370.673 428.404 370.672H85.4407C84.5074 370.671 83.6127 370.3 82.9528 369.641C82.2928 368.982 81.9216 368.088 81.9204 367.156V135.005C81.9216 134.073 82.2928 133.179 82.9528 132.52C83.6127 131.861 84.5074 131.49 85.4407 131.489H428.404C429.338 131.489 430.234 131.859 430.895 132.519C431.556 133.178 431.928 134.072 431.929 135.005V166.2H433.336V135.005C433.335 133.7 432.815 132.448 431.89 131.525C430.965 130.602 429.711 130.084 428.404 130.084Z" fill="#3F3D56"/>
<path d="M432.629 149.811H81.2151V151.218H432.629V149.811Z" fill="#3F3D56"/>
<path d="M93.1871 144.859C95.5207 144.859 97.4125 142.969 97.4125 140.638C97.4125 138.307 95.5207 136.417 93.1871 136.417C90.8535 136.417 88.9617 138.307 88.9617 140.638C88.9617 142.969 90.8535 144.859 93.1871 144.859Z" fill="#333333"/>
<path d="M105.335 144.859C107.669 144.859 109.56 142.969 109.56 140.638C109.56 138.307 107.669 136.417 105.335 136.417C103.001 136.417 101.11 138.307 101.11 140.638C101.11 142.969 103.001 144.859 105.335 144.859Z" fill="#333333"/>
<path d="M117.483 144.859C119.817 144.859 121.709 142.969 121.709 140.638C121.709 138.307 119.817 136.417 117.483 136.417C115.15 136.417 113.258 138.307 113.258 140.638C113.258 142.969 115.15 144.859 117.483 144.859Z" fill="#333333"/>
<path d="M517.438 208.108H417.995C416.796 208.108 415.647 207.632 414.799 206.786C413.951 205.939 413.475 204.79 413.475 203.593C413.475 202.395 413.951 201.247 414.799 200.4C415.647 199.553 416.796 199.078 417.995 199.078H517.438C518.636 199.078 519.786 199.553 520.634 200.4C521.481 201.247 521.958 202.395 521.958 203.593C521.958 204.79 521.481 205.939 520.634 206.786C519.786 207.632 518.636 208.108 517.438 208.108Z" fill="#0F4880"/>
<path d="M452.461 188.918H417.995C416.796 188.918 415.647 188.443 414.799 187.596C413.951 186.749 413.475 185.601 413.475 184.403C413.475 183.206 413.951 182.057 414.799 181.21C415.647 180.364 416.796 179.888 417.995 179.888H452.461C453.66 179.888 454.81 180.364 455.657 181.21C456.505 182.057 456.981 183.206 456.981 184.403C456.981 185.601 456.505 186.749 455.657 187.596C454.81 188.443 453.66 188.918 452.461 188.918Z" fill="#0F4880"/>
<path d="M372.954 213.61C383.564 213.61 392.165 205.018 392.165 194.42C392.165 183.822 383.564 175.23 372.954 175.23C362.345 175.23 353.744 183.822 353.744 194.42C353.744 205.018 362.345 213.61 372.954 213.61Z" fill="#0F4880"/>
<path d="M527.405 165.071H348.296C345.75 165.075 343.309 166.087 341.508 167.885C339.708 169.684 338.695 172.122 338.691 174.666V214.174C338.695 216.718 339.708 219.156 341.508 220.955C343.309 222.754 345.75 223.766 348.296 223.769H527.405C529.952 223.766 532.393 222.754 534.193 220.955C535.994 219.156 537.007 216.718 537.011 214.174V174.666C537.007 172.122 535.994 169.684 534.193 167.885C532.393 166.087 529.952 165.075 527.405 165.071ZM535.881 214.174C535.878 216.419 534.984 218.571 533.395 220.158C531.806 221.745 529.652 222.638 527.405 222.64H348.296C346.049 222.638 343.895 221.745 342.306 220.158C340.717 218.571 339.824 216.419 339.821 214.174V174.666C339.824 172.422 340.717 170.27 342.306 168.683C343.895 167.096 346.049 166.203 348.296 166.2H527.405C529.652 166.203 531.806 167.096 533.395 168.683C534.984 170.27 535.878 172.422 535.881 174.666V214.174Z" fill="#3F3D56"/>
<path d="M535.881 180.874C543.058 180.874 548.876 175.063 548.876 167.893C548.876 160.724 543.058 154.912 535.881 154.912C528.703 154.912 522.885 160.724 522.885 167.893C522.885 175.063 528.703 180.874 535.881 180.874Z" fill="#0F4880"/>
<path d="M535.481 175.194C535.429 175.141 535.387 175.079 535.359 175.011C535.33 174.942 535.316 174.869 535.316 174.795V160.427C535.316 160.278 535.375 160.134 535.481 160.028C535.587 159.922 535.731 159.863 535.881 159.863C536.03 159.863 536.174 159.922 536.28 160.028C536.386 160.134 536.446 160.278 536.446 160.427V174.795C536.446 174.906 536.412 175.015 536.35 175.108C536.288 175.201 536.2 175.273 536.097 175.316C535.994 175.359 535.88 175.37 535.77 175.348C535.661 175.326 535.56 175.273 535.481 175.194Z" fill="#F5F5F5"/>
<path d="M528.29 168.01C528.211 167.931 528.157 167.831 528.135 167.721C528.113 167.612 528.125 167.498 528.167 167.395C528.21 167.292 528.282 167.204 528.375 167.142C528.468 167.08 528.577 167.047 528.689 167.047H543.072C543.222 167.047 543.366 167.106 543.472 167.212C543.578 167.318 543.637 167.461 543.637 167.611C543.637 167.761 543.578 167.904 543.472 168.01C543.366 168.116 543.222 168.175 543.072 168.175H528.689C528.615 168.175 528.542 168.161 528.473 168.133C528.404 168.104 528.342 168.063 528.29 168.01Z" fill="#F5F5F5"/>
<path d="M551.437 340.435H524.311C524.311 341.214 496.354 341.846 496.354 341.846C495.916 342.176 495.516 342.555 495.162 342.975C494.1 344.24 493.52 345.839 493.523 347.49V348.619C493.524 350.49 494.268 352.284 495.593 353.607C496.917 354.93 498.713 355.673 500.586 355.674H551.437C553.31 355.672 555.105 354.929 556.43 353.606C557.754 352.283 558.498 350.49 558.5 348.619V347.49C558.497 345.62 557.752 343.827 556.429 342.504C555.105 341.182 553.31 340.438 551.437 340.435Z" fill="#3F3D56"/>
<path d="M529.964 355.394H522.619V402.804H529.964V355.394Z" fill="#3F3D56"/>
<path d="M550.87 402.546C550.87 403.339 539.739 402.852 526.009 402.852C512.279 402.852 501.148 403.339 501.148 402.546C501.148 401.753 512.279 395.466 526.009 395.466C539.739 395.466 550.87 401.753 550.87 402.546Z" fill="#3F3D56"/>
<path d="M528.648 276.901C537.385 276.901 544.468 269.826 544.468 261.098C544.468 252.37 537.385 245.295 528.648 245.295C519.911 245.295 512.828 252.37 512.828 261.098C512.828 269.826 519.911 276.901 528.648 276.901Z" fill="#2F2E41"/>
<path d="M489.278 396.31L482.351 396.31L479.055 369.62L489.279 369.621L489.278 396.31Z" fill="#FFC1B9"/>
<path d="M477.403 394.333H490.762V402.735H468.992C468.992 400.507 469.878 398.369 471.455 396.794C473.033 395.218 475.172 394.333 477.403 394.333Z" fill="#2F2E41"/>
<path d="M478.465 392.448L471.856 390.376L476.71 363.925L486.465 366.983L478.465 392.448Z" fill="#FFC1B9"/>
<path d="M467.727 387.01L480.474 391.006L477.955 399.023L457.183 392.511C457.851 390.385 459.337 388.611 461.315 387.579C463.292 386.548 465.599 386.343 467.727 387.01Z" fill="#2F2E41"/>
<path d="M532.886 335.808C532.726 334.464 532.438 333.137 532.027 331.846L530.733 330.221L527.366 325.999L527.219 326.005C526.97 326.016 525.936 326.073 524.337 326.197H524.32C523.331 326.276 522.122 326.377 520.749 326.507C520.388 326.547 520.009 326.58 519.619 326.62V332.512H526.682C527.025 332.513 527.357 332.638 527.614 332.864C527.872 333.091 528.039 333.403 528.083 333.743C528.089 333.805 528.095 333.861 528.095 333.923C528.094 334.298 527.946 334.656 527.681 334.921C527.416 335.186 527.057 335.334 526.682 335.334H485.662C485.139 335.681 484.637 336.058 484.159 336.463C482.714 337.581 481.673 339.138 481.193 340.899C478.797 351.42 474.43 371.039 473.141 376.801C473.048 377.235 473.069 377.686 473.203 378.11C473.336 378.533 473.578 378.915 473.904 379.217C474.145 379.441 474.427 379.615 474.735 379.73L479.831 381.638C480.041 381.715 480.259 381.767 480.481 381.79C480.509 381.79 480.532 381.796 480.56 381.796C480.613 381.801 480.665 381.803 480.718 381.802C481.233 381.8 481.736 381.642 482.161 381.35C482.585 381.058 482.911 380.645 483.097 380.165L487.12 369.622L493.318 353.367L495.77 346.939C498.612 347.605 522.456 352.876 530.439 344.382C531.227 343.545 531.848 342.566 532.27 341.498C532.942 339.681 533.154 337.727 532.886 335.808Z" fill="#2F2E41"/>
<path d="M539.801 337.344C539.677 336.841 539.536 336.322 539.372 335.797L534.711 329.95L534.564 329.956C534.27 329.973 532.875 330.046 530.733 330.221C528.304 330.424 524.908 330.751 521.094 331.265C520.981 331.276 520.863 331.293 520.749 331.31C520.376 331.361 519.998 331.412 519.619 331.468V332.512H526.682C527.025 332.513 527.357 332.638 527.614 332.864C527.872 333.091 528.039 333.403 528.083 333.743C528.089 333.805 528.095 333.861 528.095 333.923C528.094 334.298 527.946 334.656 527.681 334.921C527.416 335.186 527.057 335.334 526.682 335.334H501.72C500.629 335.69 499.578 336.062 498.573 336.463C493.295 338.551 489.346 341.289 488.538 344.85C488.267 346.047 487.967 347.362 487.651 348.762C486.476 353.965 485.046 360.337 483.752 366.128V366.134C483.487 367.33 483.221 368.493 482.967 369.622C481.888 374.476 480.972 378.59 480.486 380.752C480.475 380.814 480.464 380.87 480.452 380.933V380.944C480.396 381.381 480.451 381.825 480.611 382.236L480.616 382.242V382.248C480.772 382.641 481.025 382.989 481.351 383.258C481.569 383.438 481.815 383.581 482.08 383.681L487.176 385.589C487.46 385.695 487.76 385.75 488.063 385.753C488.488 385.754 488.906 385.647 489.278 385.442C489.812 385.153 490.225 384.683 490.442 384.116L501.414 355.354L503.115 350.889C505.957 351.555 529.801 356.821 537.784 348.333C539.362 346.627 540.262 344.406 540.316 342.085C540.371 340.488 540.198 338.891 539.801 337.344Z" fill="#2F2E41"/>
<path d="M539.174 287.552C539.084 287.445 538.988 287.338 538.886 287.236C537.381 285.656 535.523 284.454 533.464 283.729C531.404 283.004 529.202 282.776 527.038 283.065C525.15 283.313 523.28 283.68 521.439 284.166C519.061 284.776 516.883 285.996 515.122 287.704C513.75 289.033 512.669 290.633 511.948 292.401C511.227 294.169 510.882 296.068 510.935 297.977C510.958 298.75 510.963 299.54 510.952 300.341C510.952 300.714 510.946 301.092 510.941 301.47H516.512C516.754 301.469 516.994 301.498 517.229 301.555C517.909 301.717 518.515 302.103 518.948 302.651C519.382 303.199 519.618 303.876 519.619 304.574V330.83C519.998 330.938 520.376 331.045 520.749 331.158C520.868 331.197 520.981 331.231 521.094 331.265C521.224 331.305 521.354 331.344 521.478 331.384C522.625 331.739 523.746 332.115 524.84 332.512H526.682C527.025 332.513 527.357 332.638 527.614 332.864C527.872 333.091 528.039 333.403 528.083 333.743C528.468 333.895 528.84 334.048 529.208 334.2C530.513 334.742 531.75 335.284 532.886 335.809C534.417 336.508 535.779 337.174 536.92 337.756C537.279 337.938 537.676 338.035 538.078 338.038C538.607 338.036 539.122 337.866 539.547 337.552C539.636 337.487 539.721 337.418 539.802 337.344C540.104 337.06 540.332 336.708 540.467 336.316C540.602 335.925 540.639 335.506 540.576 335.097C539.992 330.664 539.822 326.186 540.067 321.721C540.225 317.968 540.564 314.118 541.005 310.399C541.242 308.384 541.508 306.409 541.785 304.507C542.051 302.689 542.333 300.945 542.61 299.297C542.973 297.207 542.852 295.062 542.257 293.026C541.661 290.99 540.607 289.118 539.174 287.552Z" fill="#0F4880"/>
<path d="M516.015 288.015C515.725 287.891 515.426 287.787 515.122 287.704C513.616 287.299 512.015 287.449 510.61 288.126C509.206 288.802 508.092 289.961 507.472 291.39L503.59 300.341L503.104 301.47H516.512C516.754 301.47 516.994 301.498 517.229 301.555L517.681 300.511L519.399 296.549C520.081 294.968 520.108 293.183 519.473 291.583C518.839 289.983 517.595 288.7 516.015 288.015Z" fill="#0F4880"/>
<path d="M528.07 278.658C535.734 278.658 541.947 272.451 541.947 264.795C541.947 257.139 535.734 250.933 528.07 250.933C520.405 250.933 514.192 257.139 514.192 264.795C514.192 272.451 520.405 278.658 528.07 278.658Z" fill="#FFC1B9"/>
<path d="M513.943 257.985C520.516 261.993 527.926 264.432 535.597 265.112L533.315 262.38C534.977 262.994 536.726 263.341 538.496 263.408C540.265 263.381 542.118 262.7 543.122 261.245C543.57 260.522 543.836 259.702 543.897 258.853C543.959 258.005 543.814 257.155 543.475 256.375C542.78 254.819 541.697 253.466 540.33 252.446C537.908 250.532 535.048 249.246 532.008 248.703C528.967 248.161 525.839 248.378 522.903 249.335C520.888 249.936 519.084 251.092 517.697 252.67C516.382 254.292 513.849 255.736 514.523 257.711L513.943 257.985Z" fill="#2F2E41"/>
<path d="M537.858 259.466C534.171 252.711 528.974 246.896 522.671 242.475L523.281 245.982C522.148 244.62 520.807 243.446 519.308 242.503C517.762 241.643 515.817 241.307 514.219 242.065C513.47 242.468 512.829 243.046 512.351 243.75C511.873 244.453 511.573 245.262 511.476 246.107C511.3 247.802 511.561 249.514 512.234 251.08C513.374 253.948 515.206 256.49 517.568 258.479C519.93 260.468 522.747 261.843 525.769 262.48C527.815 262.966 529.955 262.866 531.946 262.192C533.897 261.445 536.813 261.46 537.218 259.412L537.858 259.466Z" fill="#2F2E41"/>
<path d="M541.785 304.507L533.863 304.721L533.287 310.28L533.157 311.567L520.749 317.132L519.619 317.64V327.534L520.749 327.213L524.32 326.197H524.337L540.067 321.721L540.248 321.67C541.519 321.304 542.638 320.537 543.438 319.485C544.238 318.432 544.677 317.15 544.689 315.829L544.729 309.265L544.762 304.428L541.785 304.507Z" fill="#FFC1B9"/>
<path d="M544.361 293.512C544.256 291.794 543.471 290.188 542.18 289.047C540.889 287.907 539.197 287.325 537.477 287.431C535.756 287.536 534.149 288.32 533.007 289.61C531.865 290.9 531.283 292.59 531.389 294.308L532.253 308.395C532.276 308.766 532.381 309.127 532.56 309.453C532.739 309.779 532.987 310.061 533.287 310.281C533.765 310.636 534.354 310.81 534.948 310.772L541.005 310.399L542.842 310.286C543.176 310.27 543.504 310.186 543.805 310.039C544.106 309.893 544.374 309.687 544.593 309.434C544.642 309.38 544.687 309.324 544.729 309.265C545.088 308.784 545.264 308.192 545.226 307.594L544.361 293.512Z" fill="#0F4880"/>
<path d="M521.478 331.384H520.749V331.31C520.376 331.361 519.998 331.412 519.619 331.468V332.512H524.84C523.744 332.117 522.623 331.741 521.478 331.384ZM521.478 331.384H520.749V331.31C520.376 331.361 519.998 331.412 519.619 331.468V332.512H524.84C523.744 332.117 522.623 331.741 521.478 331.384ZM526.682 331.384H520.749V304.574C520.747 303.657 520.447 302.764 519.894 302.031C519.341 301.299 518.564 300.765 517.681 300.511C517.302 300.396 516.908 300.339 516.512 300.341H466.226C465.102 300.343 464.025 300.789 463.231 301.583C462.436 302.376 461.989 303.452 461.988 304.574V332.23C461.988 333.353 462.435 334.429 463.23 335.223C464.024 336.017 465.102 336.463 466.226 336.463H526.682C527.308 336.462 527.912 336.231 528.377 335.813C528.843 335.396 529.139 334.821 529.208 334.2C529.219 334.108 529.225 334.016 529.225 333.923C529.224 333.25 528.955 332.605 528.479 332.129C528.002 331.652 527.356 331.385 526.682 331.384ZM528.095 333.923C528.094 334.298 527.946 334.656 527.681 334.921C527.416 335.186 527.057 335.334 526.682 335.334H466.226C465.402 335.334 464.611 335.007 464.029 334.425C463.446 333.843 463.119 333.053 463.118 332.23V304.574C463.119 303.751 463.446 302.962 464.029 302.38C464.611 301.798 465.402 301.471 466.226 301.47H516.512C516.754 301.469 516.995 301.498 517.229 301.555C517.909 301.717 518.515 302.103 518.948 302.651C519.382 303.199 519.618 303.876 519.619 304.574V332.512H526.682C527.025 332.513 527.357 332.638 527.614 332.864C527.872 333.091 528.039 333.403 528.083 333.743C528.089 333.805 528.095 333.861 528.095 333.923ZM521.478 331.384H520.749V331.31C520.376 331.361 519.998 331.412 519.619 331.468V332.512H524.84C523.744 332.117 522.623 331.741 521.478 331.384Z" fill="#3F3D56"/>
<path d="M491.367 321.789C493.239 321.789 494.757 320.273 494.757 318.403C494.757 316.533 493.239 315.017 491.367 315.017C489.495 315.017 487.977 316.533 487.977 318.403C487.977 320.273 489.495 321.789 491.367 321.789Z" fill="#0F4880"/>
<path d="M188.567 40.2803C188.554 40.5382 188.562 40.7967 188.59 41.0533L170.848 55.9276L165.557 54.014L161.622 61.6129L173.19 67.1133L192.586 45.3704C193.566 45.5478 194.576 45.4233 195.483 45.0132C196.39 44.6031 197.15 43.927 197.663 43.0747C198.176 42.2224 198.417 41.2344 198.354 40.242C198.291 39.2497 197.927 38.3 197.31 37.5193C196.694 36.7386 195.854 36.1639 194.902 35.8716C193.951 35.5793 192.933 35.5833 191.984 35.883C191.035 36.1828 190.199 36.764 189.589 37.5495C188.979 38.335 188.622 39.2875 188.567 40.2803Z" fill="#FFC1B9"/>
<path d="M164.771 65.2579L147.638 59.0803C146.065 58.5132 144.782 57.3451 144.071 55.833C143.36 54.321 143.28 52.5888 143.848 51.0176C144.415 49.4463 145.585 48.1647 147.098 47.4547C148.612 46.7447 150.346 46.6645 151.919 47.2316L169.052 53.4092C169.312 53.5027 169.551 53.6465 169.755 53.8322C169.959 54.0179 170.124 54.2419 170.241 54.4914C170.359 54.741 170.426 55.0112 170.438 55.2866C170.451 55.562 170.409 55.8372 170.316 56.0965L167.462 63.9959C167.272 64.5191 166.882 64.9458 166.377 65.1824C165.873 65.419 165.295 65.4461 164.771 65.2579Z" fill="#333333"/>
<path d="M152.223 125.44L157.949 125.439L160.673 103.377L152.222 103.377L152.223 125.44Z" fill="#FFC1B9"/>
<path d="M168.992 130.75L150.996 130.751L150.996 123.806L162.039 123.805C163.883 123.805 165.651 124.537 166.955 125.839C168.259 127.142 168.992 128.908 168.992 130.75Z" fill="#2F2E41"/>
<path d="M138.072 118.051L142.756 121.341L157.688 104.858L150.775 100.003L138.072 118.051Z" fill="#FFC1B9"/>
<path d="M148.166 130.901L133.445 120.562L137.444 114.88L146.478 121.225C147.986 122.284 149.011 123.899 149.328 125.714C149.645 127.529 149.227 129.395 148.166 130.901Z" fill="#2F2E41"/>
<path d="M164.752 85.6969C164.752 85.6969 179.042 84.0128 176.477 93.2755C173.912 102.538 145.333 110.538 145.333 110.538L164.752 85.6969Z" fill="#FFC1B9"/>
<path d="M154.917 38.434C161.252 38.434 166.388 33.3036 166.388 26.975C166.388 20.6463 161.252 15.5159 154.917 15.5159C148.582 15.5159 143.446 20.6463 143.446 26.975C143.446 33.3036 148.582 38.434 154.917 38.434Z" fill="#FFC1B9"/>
<path d="M118.334 108.641C111.806 101.049 109.522 89.3962 119.932 79.7047C122.503 77.37 125.414 75.4389 128.565 73.9776L136.955 50.5405C137.826 48.0931 139.424 45.9693 141.535 44.4524C143.646 42.9356 146.17 42.0978 148.77 42.0509C151.294 41.9421 153.79 42.6166 155.916 43.9818C158.041 45.3471 159.691 47.3361 160.639 49.6757C161.663 52.0559 161.781 54.7283 160.968 57.1889C158.471 64.958 155.191 72.4541 151.179 79.5621L151.613 83.0289L172.819 84.9115L172.621 85.2327C172.518 85.4004 162.14 101.196 148.863 111.681C144.323 115.266 139.628 116.752 135.198 116.751C128.479 116.751 122.369 113.334 118.334 108.641Z" fill="#333333"/>
<path d="M116.332 30.57C118.362 28.1543 119.232 24.9945 119.933 21.9194C121.041 17.0538 121.898 12.0225 124.36 7.68053C126.821 3.33857 131.345 -0.259185 136.333 0.0146695C141.292 0.28696 145.301 4.2726 147.43 8.80747C147.945 8.60753 148.497 8.51795 149.049 8.54455C149.601 8.57115 150.142 8.71332 150.635 8.96187C152.169 9.80095 152.743 12.1859 151.466 13.3798C152.809 12.7411 154.271 12.3918 155.758 12.3548C157.245 12.3178 158.723 12.5938 160.096 13.1649C161.862 13.9157 163.386 15.1385 164.501 16.6987C165.616 18.259 166.278 20.0961 166.415 22.0081C166.469 22.7841 166.362 23.5629 166.102 24.296C165.842 25.0292 165.434 25.7012 164.903 26.2704C162.702 28.5338 159.589 27.7531 156.821 27.1765C154.207 26.6319 151.022 26.4849 149.549 28.9732C148.969 30.01 148.807 31.229 149.095 32.3814C149.659 34.8654 151.5 36.5956 153.287 38.2515L153.579 38.7936C147.272 40.0221 140.386 35.7198 138.731 29.5179C137.077 23.3161 140.907 16.1613 146.99 14.0924C146.585 14.105 146.184 14.0094 145.829 13.8155C145.473 13.6215 145.176 13.3363 144.968 12.9893C144.76 12.6423 144.648 12.246 144.645 11.8415C144.641 11.437 144.746 11.0388 144.948 10.6882C143.264 9.74604 141.359 9.27118 139.429 9.31289C136.288 9.51878 133.569 11.7527 131.934 14.4405C130.299 17.1282 129.559 20.2479 128.808 23.3024C128.059 26.357 127.247 29.4699 125.499 32.0857C124.288 33.8973 122.67 35.4012 120.774 36.4773C118.878 37.5534 116.756 38.1719 114.578 38.2835C112.4 38.3951 110.227 37.9967 108.23 37.12C106.234 36.2433 104.47 34.9127 103.08 33.2343C105.277 34.2984 107.762 34.614 110.156 34.1328C112.549 33.6516 114.719 32.4001 116.332 30.57Z" fill="#79725A"/>
<path d="M200.587 61.7986C209.797 61.7986 217.262 54.3412 217.262 45.142C217.262 35.9429 209.797 28.4855 200.587 28.4855C191.378 28.4855 183.913 35.9429 183.913 45.142C183.913 54.3412 191.378 61.7986 200.587 61.7986Z" fill="#0F4880"/>
<path d="M200.075 54.5096C200.007 54.4424 199.954 54.3626 199.918 54.2747C199.881 54.1868 199.862 54.0926 199.863 53.9975V35.5624C199.863 35.3703 199.939 35.1861 200.075 35.0503C200.211 34.9145 200.395 34.8383 200.587 34.8383C200.78 34.8383 200.964 34.9145 201.1 35.0503C201.236 35.1861 201.312 35.3703 201.312 35.5624V53.9975C201.312 54.1407 201.27 54.2807 201.19 54.3998C201.111 54.5189 200.997 54.6117 200.865 54.6665C200.732 54.7213 200.587 54.7357 200.446 54.7077C200.305 54.6798 200.176 54.6108 200.075 54.5096Z" fill="#F5F5F5"/>
<path d="M190.847 45.292C190.746 45.1907 190.677 45.0617 190.649 44.9212C190.621 44.7807 190.635 44.6351 190.69 44.5028C190.745 44.3705 190.838 44.2574 190.957 44.1779C191.076 44.0983 191.217 44.0558 191.36 44.0558H209.815C210.007 44.0558 210.192 44.1321 210.328 44.2679C210.463 44.4037 210.54 44.5879 210.54 44.7799C210.54 44.972 210.463 45.1562 210.328 45.292C210.192 45.4278 210.007 45.5041 209.815 45.5041H191.36C191.265 45.5042 191.17 45.4855 191.082 45.4491C190.994 45.4128 190.915 45.3593 190.847 45.292Z" fill="#F5F5F5"/>
<path d="M189.142 56.2831C189.02 56.5111 188.917 56.7484 188.834 56.9926L166.445 62.9234L162.47 58.9447L155.675 64.1525L163.805 74.0427L190.614 62.597C191.425 63.1735 192.393 63.4897 193.388 63.5036C194.383 63.5174 195.359 63.2282 196.186 62.6745C197.013 62.1208 197.651 61.3287 198.017 60.4037C198.382 59.4786 198.456 58.4645 198.231 57.4961C198.005 56.5276 197.489 55.6508 196.752 54.9823C196.015 54.3137 195.092 53.8851 194.106 53.7535C193.119 53.6218 192.115 53.7933 191.229 54.2451C190.342 54.697 189.614 55.4078 189.142 56.2831Z" fill="#FFC1B9"/>
<path d="M156.974 68.7889L144.094 55.9227C143.507 55.3382 143.041 54.6438 142.723 53.8792C142.405 53.1146 142.24 52.2948 142.24 51.4668C142.239 50.6387 142.402 49.8187 142.719 49.0536C143.036 48.2884 143.5 47.5932 144.087 47.0077C144.673 46.4222 145.369 45.9579 146.135 45.6414C146.901 45.3248 147.721 45.1623 148.55 45.163C149.379 45.1637 150.2 45.3276 150.965 45.6455C151.731 45.9633 152.426 46.4288 153.011 47.0153L165.891 59.8816C166.086 60.0765 166.241 60.3079 166.347 60.5626C166.453 60.8173 166.507 61.0903 166.507 61.366C166.507 61.6417 166.453 61.9147 166.347 62.1694C166.241 62.4241 166.086 62.6555 165.891 62.8504L159.947 68.7889C159.552 69.182 159.018 69.4027 158.46 69.4027C157.903 69.4027 157.369 69.1819 156.974 68.7889Z" fill="#333333"/>
<path d="M210.175 345.429C208.845 345.422 207.537 345.086 206.37 344.45C205.204 343.814 204.215 342.898 203.493 341.785C202.771 340.672 202.34 339.398 202.238 338.077C202.135 336.757 202.365 335.432 202.907 334.222L212.113 313.771C204.862 307.385 199.06 299.536 195.092 290.746C191.124 281.955 189.081 272.424 189.098 262.786C189.098 225.132 219.863 194.498 257.679 194.498C295.495 194.498 326.26 225.132 326.26 262.786C326.26 300.439 295.495 331.074 257.679 331.074C251.063 331.067 244.484 330.102 238.148 328.209L214.654 344.047C213.334 344.944 211.773 345.425 210.175 345.429ZM257.679 204.027C245.44 204.02 233.502 207.804 223.52 214.855C213.538 221.906 206.006 231.875 201.969 243.379C197.931 254.883 197.588 267.353 200.987 279.06C204.386 290.767 211.358 301.132 220.937 308.716L223.838 311.019L213.933 333.026L236.663 317.704L238.907 318.454C247.015 321.167 255.619 322.091 264.121 321.163C272.624 320.235 280.822 317.478 288.147 313.082C295.473 308.686 301.751 302.756 306.547 295.703C311.342 288.651 314.54 280.645 315.919 272.239C317.297 263.834 316.824 255.231 314.532 247.026C312.239 238.82 308.183 231.21 302.643 224.721C297.102 218.232 290.212 213.021 282.448 209.447C274.684 205.874 266.232 204.024 257.679 204.027Z" fill="#333333"/>
<path d="M257.679 269.185C262.844 269.185 267.031 265.006 267.031 259.849C267.031 254.693 262.844 250.514 257.679 250.514C252.514 250.514 248.327 254.693 248.327 259.849C248.327 265.006 252.514 269.185 257.679 269.185Z" fill="#333333"/>
<path d="M230.402 269.185C235.998 269.185 240.534 265.006 240.534 259.849C240.534 254.693 235.998 250.514 230.402 250.514C224.807 250.514 220.271 254.693 220.271 259.849C220.271 265.006 224.807 269.185 230.402 269.185Z" fill="#333333"/>
<path d="M284.955 269.185C290.551 269.185 295.087 265.006 295.087 259.849C295.087 254.693 290.551 250.514 284.955 250.514C279.36 250.514 274.824 254.693 274.824 259.849C274.824 265.006 279.36 269.185 284.955 269.185Z" fill="#333333"/>
</g>
<defs>
<clipPath id="clip0_201_21924">
<rect width="558" height="403" fill="white" transform="translate(0.5)"/>
</clipPath>
</defs>
</svg>
